<svg xmlns="http://www.w3.org/2000/svg" viewBox="0 0 22 22" width="22" height="22">
	<defs>
		<clipPath clipPathUnits="userSpaceOnUse" id="cp1">
			<path d="M-665 -25L295 -25L295 1798L-665 1798Z" />
		</clipPath>
	</defs>
	<style>
		tspan { white-space:pre }
		.shp0 { fill: #be2031 } 
	</style>
	<g id="Web 1920 – 1" clip-path="url(#cp1)">
		<path id="Path 114" fill-rule="evenodd" class="shp0" d="M19.5 21.31L15.19 16.99C13.62 18.17 11.78 18.83 9.69 18.83C4.59 18.83 0.53 14.77 0.53 9.67C0.53 7.25 1.44 5.08 2.69 3.73C4.6 1.64 7 0.51 9.69 0.51C14.79 0.51 18.85 4.57 18.85 9.67C18.85 11.76 18.2 13.59 17.02 15.16L21.34 19.48L19.5 21.31ZM9.69 16.21C13.35 16.21 16.23 13.33 16.23 9.67C16.23 6.01 13.35 3.13 9.69 3.13C6.03 3.13 3.15 6.01 3.15 9.67C3.15 13.33 6.03 16.21 9.69 16.21Z" />
	</g>
</svg>